STARTFONT 2.1
FONT -FontForge-Helvetica Neue-Bold-R-Normal--12-120-75-75-P-65-ISO10646-1
SIZE 12 75 75
FONTBOUNDINGBOX 12 13 -1 -3
COMMENT "Generated by fontforge, http://fontforge.sourceforge.net"
COMMENT "Copyright (c) 1981, 1982, 1983, 1989 and 1993, Linotype Library GmbH or its affiliated Linotype-Hell companies. All rights reserved."
COMMENT ""
COMMENT "The digitally encoded machine readable software for producing the Typefaces licensed to you is now the property of Heidelberger Druckmaschinen AG and its licensors, and may not be reproduced, used, displayed, modified, disclosed or transferred without the express written approval of Heidelberger Druckmaschinen AG."
COMMENT ""
COMMENT "Copyright (c) 1988, 1990, 1993 Adobe Systems Incorporated. All Rights Reserved."
STARTPROPERTIES 39
FOUNDRY "FontForge"
FAMILY_NAME "Helvetica Neue"
WEIGHT_NAME "Bold"
SLANT "R"
SETWIDTH_NAME "Normal"
ADD_STYLE_NAME ""
PIXEL_SIZE 12
POINT_SIZE 120
RESOLUTION_X 75
RESOLUTION_Y 75
SPACING "P"
AVERAGE_WIDTH 65
CHARSET_REGISTRY "ISO10646"
CHARSET_ENCODING "1"
FONTNAME_REGISTRY ""
CHARSET_COLLECTIONS "ISO8859-5 ISO10646-1"
FONT_NAME "HelveticaNeue-Bold"
FACE_NAME "Helvetica Neue Bold"
COPYRIGHT "Copyright (c) 1981, 1982, 1983, 1989 and 1993, Linotype Library GmbH or its affiliated Linotype-Hell companies. All rights reserved."
FONT_VERSION "6.1d8e1"
FONT_ASCENT 10
FONT_DESCENT 2
UNDERLINE_POSITION -2
UNDERLINE_THICKNESS 1
X_HEIGHT 5
CAP_HEIGHT 8
RAW_ASCENT 800
RAW_DESCENT 200
NORM_SPACE 3
RELATIVE_WEIGHT 70
RELATIVE_SETWIDTH 50
SUPERSCRIPT_X 0
SUPERSCRIPT_Y 3
SUPERSCRIPT_SIZE 2
SUBSCRIPT_X 0
SUBSCRIPT_Y 3
SUBSCRIPT_SIZE 2
AVG_LOWERCASE_WIDTH 65
AVG_UPPERCASE_WIDTH 83
ENDPROPERTIES
CHARS 99
STARTCHAR controlBS
ENCODING 8
SWIDTH 0 0
DWIDTH 0 0
BBX 1 1 0 0
BITMAP
00
ENDCHAR
STARTCHAR controlHT
ENCODING 9
SWIDTH 278 0
DWIDTH 3 0
BBX 1 1 0 0
BITMAP
00
ENDCHAR
STARTCHAR controlCR
ENCODING 13
SWIDTH 278 0
DWIDTH 3 0
BBX 1 1 0 0
BITMAP
00
ENDCHAR
STARTCHAR controlGS
ENCODING 29
SWIDTH 0 0
DWIDTH 0 0
BBX 1 1 0 0
BITMAP
00
ENDCHAR
STARTCHAR space
ENCODING 32
SWIDTH 278 0
DWIDTH 3 0
BBX 1 1 0 0
BITMAP
00
ENDCHAR
STARTCHAR exclam
ENCODING 33
SWIDTH 278 0
DWIDTH 4 0
BBX 2 9 1 0
BITMAP
C0
C0
C0
C0
C0
C0
00
C0
C0
ENDCHAR
STARTCHAR quotedbl
ENCODING 34
SWIDTH 463 0
DWIDTH 6 0
BBX 3 4 1 5
BITMAP
A0
A0
A0
A0
ENDCHAR
STARTCHAR numbersign
ENCODING 35
SWIDTH 556 0
DWIDTH 7 0
BBX 6 8 0 0
BITMAP
2C
28
7C
28
28
FC
48
58
ENDCHAR
STARTCHAR dollar
ENCODING 36
SWIDTH 556 0
DWIDTH 6 0
BBX 7 11 0 -1
BITMAP
10
7C
D6
D0
F8
7C
16
D6
FE
7C
10
ENDCHAR
STARTCHAR percent
ENCODING 37
SWIDTH 1000 0
DWIDTH 12 0
BBX 10 9 1 0
BITMAP
6100
9200
9200
9400
6580
0A40
1240
1240
2180
ENDCHAR
STARTCHAR ampersand
ENCODING 38
SWIDTH 685 0
DWIDTH 8 0
BBX 8 9 0 0
BITMAP
38
6C
6C
38
78
FA
CE
CE
7B
ENDCHAR
STARTCHAR quotesingle
ENCODING 39
SWIDTH 278 0
DWIDTH 3 0
BBX 1 4 1 5
BITMAP
80
80
80
80
ENDCHAR
STARTCHAR parenleft
ENCODING 40
SWIDTH 296 0
DWIDTH 4 0
BBX 3 11 0 -2
BITMAP
60
40
C0
C0
C0
C0
C0
C0
C0
40
60
ENDCHAR
STARTCHAR parenright
ENCODING 41
SWIDTH 296 0
DWIDTH 4 0
BBX 3 11 0 -2
BITMAP
C0
40
60
60
60
60
60
60
60
40
C0
ENDCHAR
STARTCHAR asterisk
ENCODING 42
SWIDTH 407 0
DWIDTH 5 0
BBX 5 5 0 4
BITMAP
20
B0
78
70
50
ENDCHAR
STARTCHAR plus
ENCODING 43
SWIDTH 600 0
DWIDTH 7 0
BBX 5 6 1 0
BITMAP
20
20
F8
20
20
20
ENDCHAR
STARTCHAR comma
ENCODING 44
SWIDTH 278 0
DWIDTH 4 0
BBX 2 4 1 -2
BITMAP
C0
C0
40
80
ENDCHAR
STARTCHAR hyphen
ENCODING 45
SWIDTH 407 0
DWIDTH 5 0
BBX 3 1 1 3
BITMAP
E0
ENDCHAR
STARTCHAR period
ENCODING 46
SWIDTH 278 0
DWIDTH 4 0
BBX 2 2 1 0
BITMAP
C0
C0
ENDCHAR
STARTCHAR slash
ENCODING 47
SWIDTH 371 0
DWIDTH 4 0
BBX 5 9 0 0
BITMAP
18
10
30
20
20
60
40
C0
80
ENDCHAR
STARTCHAR zero
ENCODING 48
SWIDTH 556 0
DWIDTH 7 0
BBX 6 8 0 0
BITMAP
78
CC
CC
CC
CC
CC
CC
78
ENDCHAR
STARTCHAR one
ENCODING 49
SWIDTH 556 0
DWIDTH 7 0
BBX 4 8 1 0
BITMAP
30
F0
30
30
30
30
30
30
ENDCHAR
STARTCHAR two
ENCODING 50
SWIDTH 556 0
DWIDTH 7 0
BBX 6 8 0 0
BITMAP
78
CC
CC
0C
38
70
C0
FC
ENDCHAR
STARTCHAR three
ENCODING 51
SWIDTH 556 0
DWIDTH 8 0
BBX 7 8 0 0
BITMAP
7C
C6
C6
1C
06
C6
C6
7C
ENDCHAR
STARTCHAR four
ENCODING 52
SWIDTH 556 0
DWIDTH 7 0
BBX 7 8 0 0
BITMAP
0C
1C
3C
6C
CC
FE
0C
0C
ENDCHAR
STARTCHAR five
ENCODING 53
SWIDTH 556 0
DWIDTH 8 0
BBX 6 8 1 0
BITMAP
7C
C0
F8
CC
0C
0C
CC
78
ENDCHAR
STARTCHAR six
ENCODING 54
SWIDTH 556 0
DWIDTH 8 0
BBX 7 8 0 0
BITMAP
3C
64
C2
FC
C6
C6
46
3C
ENDCHAR
STARTCHAR seven
ENCODING 55
SWIDTH 556 0
DWIDTH 7 0
BBX 6 9 1 0
BITMAP
FC
FC
08
10
30
30
60
60
60
ENDCHAR
STARTCHAR eight
ENCODING 56
SWIDTH 556 0
DWIDTH 7 0
BBX 6 8 0 0
BITMAP
78
CC
CC
78
CC
CC
CC
78
ENDCHAR
STARTCHAR nine
ENCODING 57
SWIDTH 556 0
DWIDTH 8 0
BBX 7 8 0 0
BITMAP
78
C4
C6
C6
7E
06
CC
78
ENDCHAR
STARTCHAR colon
ENCODING 58
SWIDTH 278 0
DWIDTH 4 0
BBX 2 6 1 0
BITMAP
C0
C0
00
00
C0
C0
ENDCHAR
STARTCHAR semicolon
ENCODING 59
SWIDTH 278 0
DWIDTH 4 0
BBX 2 8 1 -2
BITMAP
C0
C0
00
00
C0
C0
40
80
ENDCHAR
STARTCHAR less
ENCODING 60
SWIDTH 600 0
DWIDTH 7 0
BBX 6 6 1 0
BITMAP
0C
38
E0
E0
38
0C
ENDCHAR
STARTCHAR equal
ENCODING 61
SWIDTH 600 0
DWIDTH 7 0
BBX 6 4 1 1
BITMAP
FC
00
00
FC
ENDCHAR
STARTCHAR greater
ENCODING 62
SWIDTH 600 0
DWIDTH 7 0
BBX 6 6 1 0
BITMAP
80
E0
1C
1C
E0
80
ENDCHAR
STARTCHAR question
ENCODING 63
SWIDTH 556 0
DWIDTH 7 0
BBX 6 9 0 0
BITMAP
78
CC
CC
1C
30
30
00
30
30
ENDCHAR
STARTCHAR at
ENCODING 64
SWIDTH 800 0
DWIDTH 10 0
BBX 8 9 1 0
BITMAP
3C
42
BD
CD
CD
CD
B6
43
3C
ENDCHAR
STARTCHAR A
ENCODING 65
SWIDTH 685 0
DWIDTH 8 0
BBX 8 9 0 0
BITMAP
18
1C
3C
3C
26
66
7E
C3
C3
ENDCHAR
STARTCHAR B
ENCODING 66
SWIDTH 704 0
DWIDTH 10 0
BBX 8 8 1 0
BITMAP
FC
C6
C6
FE
C3
C3
C3
FE
ENDCHAR
STARTCHAR C
ENCODING 67
SWIDTH 741 0
DWIDTH 9 0
BBX 8 9 0 0
BITMAP
3C
7E
E7
C3
C0
C3
E6
7E
3C
ENDCHAR
STARTCHAR D
ENCODING 68
SWIDTH 741 0
DWIDTH 9 0
BBX 7 9 1 0
BITMAP
F8
FC
C6
C6
C6
C6
C6
FC
F8
ENDCHAR
STARTCHAR E
ENCODING 69
SWIDTH 648 0
DWIDTH 8 0
BBX 7 9 1 0
BITMAP
FE
FE
C0
C0
FC
C0
C0
FE
FE
ENDCHAR
STARTCHAR F
ENCODING 70
SWIDTH 593 0
DWIDTH 7 0
BBX 6 9 1 0
BITMAP
FC
FC
C0
C0
FC
C0
C0
C0
C0
ENDCHAR
STARTCHAR G
ENCODING 71
SWIDTH 759 0
DWIDTH 9 0
BBX 9 9 0 0
BITMAP
3C00
7E00
E600
C100
C000
C780
E180
7F80
3C00
ENDCHAR
STARTCHAR H
ENCODING 72
SWIDTH 741 0
DWIDTH 9 0
BBX 7 9 1 0
BITMAP
C6
C6
C6
C6
FE
FE
C6
C6
C6
ENDCHAR
STARTCHAR I
ENCODING 73
SWIDTH 295 0
DWIDTH 4 0
BBX 2 9 1 0
BITMAP
C0
C0
C0
C0
C0
C0
C0
C0
C0
ENDCHAR
STARTCHAR J
ENCODING 74
SWIDTH 556 0
DWIDTH 7 0
BBX 6 9 0 0
BITMAP
0C
0C
0C
0C
0C
CC
CC
FC
78
ENDCHAR
STARTCHAR K
ENCODING 75
SWIDTH 722 0
DWIDTH 9 0
BBX 8 9 1 0
BITMAP
C7
CC
D8
F0
F8
FC
CC
C6
C7
ENDCHAR
STARTCHAR L
ENCODING 76
SWIDTH 593 0
DWIDTH 7 0
BBX 6 9 1 0
BITMAP
C0
C0
C0
C0
C0
C0
C0
FC
FC
ENDCHAR
STARTCHAR M
ENCODING 77
SWIDTH 907 0
DWIDTH 11 0
BBX 9 9 1 0
BITMAP
E380
E380
E380
F780
D580
D580
DD80
DD80
C980
ENDCHAR
STARTCHAR N
ENCODING 78
SWIDTH 741 0
DWIDTH 9 0
BBX 7 9 1 0
BITMAP
C6
E6
E6
F6
D6
DE
CE
CE
C6
ENDCHAR
STARTCHAR O
ENCODING 79
SWIDTH 778 0
DWIDTH 9 0
BBX 8 9 0 0
BITMAP
3C
7E
E7
C3
C3
C3
E7
7E
3C
ENDCHAR
STARTCHAR P
ENCODING 80
SWIDTH 667 0
DWIDTH 8 0
BBX 6 8 1 0
BITMAP
F8
CC
CC
CC
F8
C0
C0
C0
ENDCHAR
STARTCHAR Q
ENCODING 81
SWIDTH 778 0
DWIDTH 9 0
BBX 8 10 0 -1
BITMAP
3C
7E
E7
C3
C3
CB
EF
7E
3E
01
ENDCHAR
STARTCHAR R
ENCODING 82
SWIDTH 722 0
DWIDTH 9 0
BBX 7 8 1 0
BITMAP
FC
C6
C6
FC
C6
C6
C6
C6
ENDCHAR
STARTCHAR S
ENCODING 83
SWIDTH 649 0
DWIDTH 8 0
BBX 7 9 0 0
BITMAP
7C
C6
C0
F8
7E
1E
C6
C6
7C
ENDCHAR
STARTCHAR T
ENCODING 84
SWIDTH 611 0
DWIDTH 7 0
BBX 8 9 0 0
BITMAP
FF
FF
18
18
18
18
18
18
18
ENDCHAR
STARTCHAR U
ENCODING 85
SWIDTH 741 0
DWIDTH 9 0
BBX 7 9 1 0
BITMAP
C6
C6
C6
C6
C6
C6
C6
FE
7C
ENDCHAR
STARTCHAR V
ENCODING 86
SWIDTH 630 0
DWIDTH 8 0
BBX 8 9 0 0
BITMAP
C3
C6
66
66
6C
3C
3C
38
18
ENDCHAR
STARTCHAR W
ENCODING 87
SWIDTH 944 0
DWIDTH 11 0
BBX 11 9 0 0
BITMAP
C660
CE60
4E60
6A40
6BC0
7BC0
39C0
3980
3180
ENDCHAR
STARTCHAR X
ENCODING 88
SWIDTH 667 0
DWIDTH 8 0
BBX 8 9 0 0
BITMAP
E7
66
3C
3C
18
3C
3C
66
C3
ENDCHAR
STARTCHAR Y
ENCODING 89
SWIDTH 667 0
DWIDTH 8 0
BBX 8 9 0 0
BITMAP
C3
66
66
3C
3C
18
18
18
18
ENDCHAR
STARTCHAR Z
ENCODING 90
SWIDTH 648 0
DWIDTH 8 0
BBX 8 9 0 0
BITMAP
7E
7E
0E
0C
18
30
60
FF
FF
ENDCHAR
STARTCHAR bracketleft
ENCODING 91
SWIDTH 333 0
DWIDTH 4 0
BBX 3 11 1 -2
BITMAP
E0
C0
C0
C0
C0
C0
C0
C0
C0
C0
E0
ENDCHAR
STARTCHAR backslash
ENCODING 92
SWIDTH 371 0
DWIDTH 4 0
BBX 5 9 0 0
BITMAP
80
C0
40
60
20
20
30
10
18
ENDCHAR
STARTCHAR bracketright
ENCODING 93
SWIDTH 333 0
DWIDTH 4 0
BBX 3 11 0 -2
BITMAP
E0
60
60
60
60
60
60
60
60
60
E0
ENDCHAR
STARTCHAR asciicircum
ENCODING 94
SWIDTH 600 0
DWIDTH 7 0
BBX 5 4 1 4
BITMAP
30
50
58
88
ENDCHAR
STARTCHAR underscore
ENCODING 95
SWIDTH 500 0
DWIDTH 6 0
BBX 6 1 0 -2
BITMAP
FC
ENDCHAR
STARTCHAR grave
ENCODING 96
SWIDTH 259 0
DWIDTH 3 0
BBX 3 2 -1 7
BITMAP
E0
20
ENDCHAR
STARTCHAR a
ENCODING 97
SWIDTH 574 0
DWIDTH 7 0
BBX 6 6 0 0
BITMAP
78
CC
3C
CC
CC
FC
ENDCHAR
STARTCHAR b
ENCODING 98
SWIDTH 611 0
DWIDTH 7 0
BBX 6 9 0 0
BITMAP
C0
C0
C0
F8
CC
CC
CC
CC
F8
ENDCHAR
STARTCHAR c
ENCODING 99
SWIDTH 574 0
DWIDTH 7 0
BBX 6 6 0 0
BITMAP
78
CC
C0
C0
CC
78
ENDCHAR
STARTCHAR d
ENCODING 100
SWIDTH 611 0
DWIDTH 7 0
BBX 7 9 0 0
BITMAP
06
06
06
7E
C6
C6
C6
C6
7E
ENDCHAR
STARTCHAR e
ENCODING 101
SWIDTH 574 0
DWIDTH 7 0
BBX 6 6 0 0
BITMAP
38
C4
FC
C0
C4
78
ENDCHAR
STARTCHAR f
ENCODING 102
SWIDTH 333 0
DWIDTH 4 0
BBX 4 8 0 0
BITMAP
30
60
F0
60
60
60
60
60
ENDCHAR
STARTCHAR g
ENCODING 103
SWIDTH 611 0
DWIDTH 7 0
BBX 7 8 0 -2
BITMAP
7E
C6
C6
C6
C6
7E
66
3C
ENDCHAR
STARTCHAR h
ENCODING 104
SWIDTH 593 0
DWIDTH 7 0
BBX 6 9 1 0
BITMAP
C0
C0
C0
F8
CC
CC
CC
CC
CC
ENDCHAR
STARTCHAR i
ENCODING 105
SWIDTH 258 0
DWIDTH 4 0
BBX 2 8 1 0
BITMAP
C0
00
C0
C0
C0
C0
C0
C0
ENDCHAR
STARTCHAR j
ENCODING 106
SWIDTH 278 0
DWIDTH 4 0
BBX 3 10 0 -2
BITMAP
60
00
60
60
60
60
60
60
60
E0
ENDCHAR
STARTCHAR k
ENCODING 107
SWIDTH 574 0
DWIDTH 7 0
BBX 6 9 1 0
BITMAP
C0
C0
CC
D8
F0
F0
D8
D8
CC
ENDCHAR
STARTCHAR l
ENCODING 108
SWIDTH 258 0
DWIDTH 4 0
BBX 2 9 1 0
BITMAP
C0
C0
C0
C0
C0
C0
C0
C0
C0
ENDCHAR
STARTCHAR m
ENCODING 109
SWIDTH 906 0
DWIDTH 11 0
BBX 9 6 1 0
BITMAP
FF00
D980
D980
D980
D980
D980
ENDCHAR
STARTCHAR n
ENCODING 110
SWIDTH 593 0
DWIDTH 8 0
BBX 7 6 0 0
BITMAP
FC
C6
C6
C6
C6
C6
ENDCHAR
STARTCHAR o
ENCODING 111
SWIDTH 611 0
DWIDTH 7 0
BBX 6 6 0 0
BITMAP
78
CC
CC
CC
CC
78
ENDCHAR
STARTCHAR p
ENCODING 112
SWIDTH 611 0
DWIDTH 7 0
BBX 5 8 1 -2
BITMAP
F0
D8
D8
D8
D8
F0
C0
C0
ENDCHAR
STARTCHAR q
ENCODING 113
SWIDTH 611 0
DWIDTH 7 0
BBX 7 8 0 -2
BITMAP
7E
C6
C6
C6
C6
7E
06
06
ENDCHAR
STARTCHAR r
ENCODING 114
SWIDTH 389 0
DWIDTH 5 0
BBX 4 7 0 0
BITMAP
10
F0
C0
C0
C0
C0
C0
ENDCHAR
STARTCHAR s
ENCODING 115
SWIDTH 537 0
DWIDTH 7 0
BBX 6 6 0 0
BITMAP
78
CC
F0
1C
CC
78
ENDCHAR
STARTCHAR t
ENCODING 116
SWIDTH 352 0
DWIDTH 4 0
BBX 4 8 0 0
BITMAP
60
60
F0
60
60
60
60
70
ENDCHAR
STARTCHAR u
ENCODING 117
SWIDTH 593 0
DWIDTH 8 0
BBX 6 6 1 0
BITMAP
CC
CC
CC
CC
CC
7C
ENDCHAR
STARTCHAR v
ENCODING 118
SWIDTH 520 0
DWIDTH 6 0
BBX 6 6 0 0
BITMAP
CC
4C
68
78
38
30
ENDCHAR
STARTCHAR w
ENCODING 119
SWIDTH 814 0
DWIDTH 10 0
BBX 10 6 0 0
BITMAP
CCC0
4C80
7D80
7780
3300
3300
ENDCHAR
STARTCHAR x
ENCODING 120
SWIDTH 537 0
DWIDTH 6 0
BBX 6 6 0 0
BITMAP
CC
78
30
38
78
CC
ENDCHAR
STARTCHAR y
ENCODING 121
SWIDTH 519 0
DWIDTH 6 0
BBX 6 8 0 -2
BITMAP
CC
4C
68
78
38
30
30
60
ENDCHAR
STARTCHAR z
ENCODING 122
SWIDTH 519 0
DWIDTH 6 0
BBX 6 6 0 0
BITMAP
FC
18
38
70
60
FC
ENDCHAR
STARTCHAR braceleft
ENCODING 123
SWIDTH 333 0
DWIDTH 4 0
BBX 4 11 0 -2
BITMAP
30
60
60
60
60
C0
60
60
60
60
30
ENDCHAR
STARTCHAR bar
ENCODING 124
SWIDTH 223 0
DWIDTH 3 0
BBX 1 12 1 -3
BITMAP
80
80
80
80
80
80
80
80
80
80
80
80
ENDCHAR
STARTCHAR braceright
ENCODING 125
SWIDTH 333 0
DWIDTH 4 0
BBX 4 11 0 -2
BITMAP
C0
60
60
60
60
30
60
60
60
60
C0
ENDCHAR
STARTCHAR asciitilde
ENCODING 126
SWIDTH 600 0
DWIDTH 7 0
BBX 5 2 1 2
BITMAP
E8
98
ENDCHAR
ENDFONT
